<svg id="visual" viewBox="0 0 900 600" width="900" height="600" xmlns="http://www.w3.org/2000/svg" xmlns:xlink="http://www.w3.org/1999/xlink" version="1.1"><rect x="0" y="0" width="900" height="600" fill="#c0ddf2"></rect><path d="M0 380L13.7 390.8C27.3 401.7 54.7 423.3 82 431C109.3 438.7 136.7 432.3 163.8 436C191 439.7 218 453.3 245.2 452.7C272.3 452 299.7 437 327 425.5C354.3 414 381.7 406 409 415.2C436.3 424.3 463.7 450.7 491 454.5C518.3 458.3 545.7 439.7 573 423.7C600.3 407.7 627.7 394.3 654.8 387C682 379.7 709 378.3 736.2 383.7C763.3 389 790.7 401 818 415.8C845.3 430.7 872.7 448.3 886.3 457.2L900 466L900 601L886.3 601C872.7 601 845.3 601 818 601C790.7 601 763.3 601 736.2 601C709 601 682 601 654.8 601C627.7 601 600.3 601 573 601C545.7 601 518.3 601 491 601C463.7 601 436.3 601 409 601C381.7 601 354.3 601 327 601C299.7 601 272.3 601 245.2 601C218 601 191 601 163.8 601C136.7 601 109.3 601 82 601C54.7 601 27.3 601 13.7 601L0 601Z" fill="#69b1fa"></path><path d="M0 457L13.7 449.2C27.3 441.3 54.7 425.7 82 432.3C109.3 439 136.7 468 163.8 480.7C191 493.3 218 489.7 245.2 490C272.3 490.3 299.7 494.7 327 495.7C354.3 496.7 381.7 494.3 409 486.5C436.3 478.7 463.7 465.3 491 457.2C518.3 449 545.7 446 573 445.5C600.3 445 627.7 447 654.8 450C682 453 709 457 736.2 449.7C763.3 442.3 790.7 423.7 818 417.8C845.3 412 872.7 419 886.3 422.5L900 426L900 601L886.3 601C872.7 601 845.3 601 818 601C790.7 601 763.3 601 736.2 601C709 601 682 601 654.8 601C627.7 601 600.3 601 573 601C545.7 601 518.3 601 491 601C463.7 601 436.3 601 409 601C381.7 601 354.3 601 327 601C299.7 601 272.3 601 245.2 601C218 601 191 601 163.8 601C136.7 601 109.3 601 82 601C54.7 601 27.3 601 13.7 601L0 601Z" fill="#3d93f4"></path><path d="M0 483L13.7 476.3C27.3 469.7 54.7 456.3 82 461C109.3 465.7 136.7 488.3 163.8 493C191 497.7 218 484.3 245.2 482.7C272.3 481 299.7 491 327 497.2C354.3 503.3 381.7 505.7 409 499C436.3 492.3 463.7 476.7 491 478.7C518.3 480.7 545.7 500.3 573 498.8C600.3 497.3 627.7 474.7 654.8 472.2C682 469.7 709 487.3 736.2 490.7C763.3 494 790.7 483 818 483.3C845.3 483.7 872.7 495.3 886.3 501.2L900 507L900 601L886.3 601C872.7 601 845.3 601 818 601C790.7 601 763.3 601 736.2 601C709 601 682 601 654.8 601C627.7 601 600.3 601 573 601C545.7 601 518.3 601 491 601C463.7 601 436.3 601 409 601C381.7 601 354.3 601 327 601C299.7 601 272.3 601 245.2 601C218 601 191 601 163.8 601C136.7 601 109.3 601 82 601C54.7 601 27.3 601 13.7 601L0 601Z" fill="#0f74ea"></path><path d="M0 525L13.7 519.3C27.3 513.7 54.7 502.3 82 497.8C109.3 493.3 136.7 495.7 163.8 503.3C191 511 218 524 245.2 525.8C272.3 527.7 299.7 518.3 327 519C354.3 519.7 381.7 530.3 409 528.5C436.3 526.7 463.7 512.3 491 503C518.3 493.7 545.7 489.3 573 496C600.3 502.7 627.7 520.3 654.8 523.8C682 527.3 709 516.7 736.2 512.2C763.3 507.7 790.7 509.3 818 507.7C845.3 506 872.7 501 886.3 498.5L900 496L900 601L886.3 601C872.7 601 845.3 601 818 601C790.7 601 763.3 601 736.2 601C709 601 682 601 654.8 601C627.7 601 600.3 601 573 601C545.7 601 518.3 601 491 601C463.7 601 436.3 601 409 601C381.7 601 354.3 601 327 601C299.7 601 272.3 601 245.2 601C218 601 191 601 163.8 601C136.7 601 109.3 601 82 601C54.7 601 27.3 601 13.7 601L0 601Z" fill="#0053db"></path><path d="M0 563L13.7 558.8C27.3 554.7 54.7 546.3 82 545.5C109.3 544.7 136.7 551.3 163.8 550.8C191 550.3 218 542.7 245.2 542C272.3 541.3 299.7 547.7 327 546C354.3 544.3 381.7 534.7 409 534.8C436.3 535 463.7 545 491 547.5C518.3 550 545.7 545 573 548C600.3 551 627.7 562 654.8 566.5C682 571 709 569 736.2 563.8C763.3 558.7 790.7 550.3 818 551C845.3 551.7 872.7 561.3 886.3 566.2L900 571L900 601L886.3 601C872.7 601 845.3 601 818 601C790.7 601 763.3 601 736.2 601C709 601 682 601 654.8 601C627.7 601 600.3 601 573 601C545.7 601 518.3 601 491 601C463.7 601 436.3 601 409 601C381.7 601 354.3 601 327 601C299.7 601 272.3 601 245.2 601C218 601 191 601 163.8 601C136.7 601 109.3 601 82 601C54.7 601 27.3 601 13.7 601L0 601Z" fill="#242bc7"></path></svg>